<svg xmlns="http://www.w3.org/2000/svg" viewBox="0 0 512 512" width="512" height="512">
  <defs>
    <radialGradient id="g" cx="32%" cy="28%" r="88%">
      <stop offset="0%" stop-color="#1a2b57"/>
      <stop offset="55%" stop-color="#0b1220"/>
      <stop offset="100%" stop-color="#070b12"/>
    </radialGradient>
    <linearGradient id="glass" x1="0" y1="0" x2="1" y2="1">
      <stop offset="0%" stop-color="#e7eef7" stop-opacity="0.24"/>
      <stop offset="100%" stop-color="#e7eef7" stop-opacity="0.06"/>
    </linearGradient>
    <filter id="blur" x="-30%" y="-30%" width="160%" height="160%">
      <feGaussianBlur stdDeviation="10"/>
    </filter>
  </defs>
  <rect x="0" y="0" width="512" height="512" rx="112" fill="url(#g)"/>
  <g opacity="0.8">
    <circle cx="108" cy="132" r="2" fill="#e7eef7" opacity="0.55"/>
    <circle cx="156" cy="94" r="1.6" fill="#e7eef7" opacity="0.4"/>
    <circle cx="410" cy="132" r="1.8" fill="#e7eef7" opacity="0.38"/>
    <circle cx="368" cy="94" r="1.2" fill="#e7eef7" opacity="0.35"/>
    <circle cx="408" cy="356" r="1.4" fill="#e7eef7" opacity="0.3"/>
    <circle cx="116" cy="362" r="1.3" fill="#e7eef7" opacity="0.33"/>
    <circle cx="256" cy="72" r="1.2" fill="#e7eef7" opacity="0.3"/>
    <circle cx="252" cy="420" r="1.1" fill="#e7eef7" opacity="0.26"/>
  </g>
  <g filter="url(#blur)" opacity="0.7">
    <path d="M120 332c66 54 202 54 272 0" fill="none" stroke="#7aa2ff" stroke-opacity="0.4" stroke-width="22" stroke-linecap="round"/>
  </g>
  <g>
    <rect x="112" y="132" width="288" height="248" rx="56" fill="url(#glass)" stroke="#e7eef7" stroke-opacity="0.18" stroke-width="2"/>
    <path d="M176 228h190" stroke="#e7eef7" stroke-opacity="0.55" stroke-width="18" stroke-linecap="round"/>
    <path d="M176 286h150" stroke="#e7eef7" stroke-opacity="0.45" stroke-width="14" stroke-linecap="round"/>
    <path d="M176 334h112" stroke="#e7eef7" stroke-opacity="0.35" stroke-width="12" stroke-linecap="round"/>
  </g>
</svg>

